# Made in Blockbench 5.1.4
mtllib damage_ring_hitbox.mtl

o torus
v 0.46891108675446463 0.0625 1.75
v 0.5051690254371017 0.03125000000000001 1.8853164693413182
v 0.5051690254371017 -0.03124999999999999 1.8853164693413185
v 0.46891108675446463 -0.0625 1.75
v 0.43265314807182764 -0.03125000000000003 1.6146835306586815
v 0.43265314807182764 0.03125000000000001 1.6146835306586815
v 1.281088913245535 0.0625 1.2810889132455352
v 1.3801474439042163 0.03125000000000001 1.3801474439042165
v 1.3801474439042165 -0.03124999999999999 1.3801474439042167
v 1.281088913245535 -0.0625 1.2810889132455352
v 1.1820303825868537 -0.03125000000000003 1.182030382586854
v 1.1820303825868537 0.03125000000000001 1.182030382586854
v 1.75 0.0625 0.46891108675446463
v 1.8853164693413182 0.03125000000000001 0.5051690254371017
v 1.8853164693413185 -0.03124999999999999 0.5051690254371017
v 1.75 -0.0625 0.46891108675446463
v 1.6146835306586815 -0.03125000000000003 0.43265314807182764
v 1.6146835306586815 0.03125000000000001 0.43265314807182764
v 1.75 0.0625 -0.46891108675446486
v 1.8853164693413182 0.03125000000000001 -0.505169025437102
v 1.8853164693413185 -0.03124999999999999 -0.505169025437102
v 1.75 -0.0625 -0.46891108675446486
v 1.6146835306586815 -0.03125000000000003 -0.4326531480718278
v 1.6146835306586815 0.03125000000000001 -0.4326531480718278
v 1.2810889132455352 0.0625 -1.281088913245535
v 1.3801474439042165 0.03125000000000001 -1.3801474439042163
v 1.3801474439042167 -0.03124999999999999 -1.3801474439042165
v 1.2810889132455352 -0.0625 -1.281088913245535
v 1.182030382586854 -0.03125000000000003 -1.1820303825868537
v 1.182030382586854 0.03125000000000001 -1.1820303825868537
v 0.46891108675446513 0.0625 -1.7499999999999998
v 0.5051690254371022 0.03125000000000001 -1.885316469341318
v 0.5051690254371023 -0.03124999999999999 -1.8853164693413182
v 0.46891108675446513 -0.0625 -1.7499999999999998
v 0.4326531480718281 -0.03125000000000003 -1.6146835306586813
v 0.4326531480718281 0.03125000000000001 -1.6146835306586813
v -0.46891108675446397 0.0625 -1.75
v -0.505169025437101 0.03125000000000001 -1.8853164693413185
v -0.505169025437101 -0.03124999999999999 -1.8853164693413187
v -0.46891108675446397 -0.0625 -1.75
v -0.432653148071827 -0.03125000000000003 -1.6146835306586818
v -0.432653148071827 0.03125000000000001 -1.6146835306586818
v -1.281088913245535 0.0625 -1.2810889132455354
v -1.3801474439042163 0.03125000000000001 -1.3801474439042167
v -1.3801474439042165 -0.03124999999999999 -1.380147443904217
v -1.281088913245535 -0.0625 -1.2810889132455354
v -1.1820303825868537 -0.03125000000000003 -1.1820303825868541
v -1.1820303825868537 0.03125000000000001 -1.1820303825868541
v -1.75 0.0625 -0.46891108675446447
v -1.8853164693413182 0.03125000000000001 -0.5051690254371015
v -1.8853164693413185 -0.03124999999999999 -0.5051690254371015
v -1.75 -0.0625 -0.46891108675446447
v -1.6146835306586815 -0.03125000000000003 -0.4326531480718274
v -1.6146835306586815 0.03125000000000001 -0.4326531480718274
v -1.75 0.0625 0.46891108675446386
v -1.8853164693413185 0.03125000000000001 0.5051690254371008
v -1.8853164693413187 -0.03124999999999999 0.5051690254371008
v -1.75 -0.0625 0.46891108675446386
v -1.6146835306586818 -0.03125000000000003 0.43265314807182687
v -1.6146835306586818 0.03125000000000001 0.43265314807182687
v -1.2810889132455354 0.0625 1.2810889132455348
v -1.3801474439042167 0.03125000000000001 1.380147443904216
v -1.380147443904217 -0.03124999999999999 1.3801474439042163
v -1.2810889132455354 -0.0625 1.2810889132455348
v -1.1820303825868541 -0.03125000000000003 1.1820303825868534
v -1.1820303825868541 0.03125000000000001 1.1820303825868534
v -0.4689110867544646 0.0625 1.75
v -0.5051690254371016 0.03125000000000001 1.8853164693413182
v -0.5051690254371016 -0.03124999999999999 1.8853164693413185
v -0.4689110867544646 -0.0625 1.75
v -0.43265314807182753 -0.03125000000000003 1.6146835306586815
v -0.43265314807182753 0.03125000000000001 1.6146835306586815
vt 0.036256250000000045 1
vt 0 0.8423562499999999
vt 1.0103375 0.8423562499999999
vt 0.97408125 1
vt 0 1
vt 0 0.8382375
vt 1.0103375 0.8382375
vt 1.0103375 1
vt 0 1
vt 0.036256250000000045 0.8423562499999999
vt 0.97408125 0.8423562499999999
vt 1.0103375 1
vt 0.937825 0.8423500000000002
vt 0.90156875 1
vt 0.03625624999999999 1
vt 0 0.8423500000000002
vt 0.8653125 0.8382375
vt 0.8653125 1
vt 0 1
vt 0 0.8382375
vt 0.90156875 0.8423500000000002
vt 0.937825 1
vt 0 1
vt 0.03625624999999999 0.8423500000000002
vt 0.036256250000000045 1
vt 0 0.8423562499999999
vt 1.0103375 0.8423562499999999
vt 0.97408125 1
vt 0 1
vt 0 0.8382375
vt 1.0103375 0.8382375
vt 1.0103375 1
vt 0 1
vt 0.036256250000000045 0.8423562499999999
vt 0.97408125 0.8423562499999999
vt 1.0103375 1
vt 0.937825 0.8423500000000002
vt 0.90156875 1
vt 0.03625624999999999 1
vt 0 0.8423500000000002
vt 0.8653125 0.8382375
vt 0.8653125 1
vt 0 1
vt 0 0.8382375
vt 0.90156875 0.8423500000000002
vt 0.937825 1
vt 0 1
vt 0.03625624999999999 0.8423500000000002
vt 0.036256250000000045 1
vt 0 0.8423562499999999
vt 1.0103375 0.8423562499999999
vt 0.97408125 1
vt 0 1
vt 0 0.8382375
vt 1.0103375 0.8382375
vt 1.0103375 1
vt 0 1
vt 0.036256250000000045 0.8423562499999999
vt 0.97408125 0.8423562499999999
vt 1.0103375 1
vt 0.937825 0.8423500000000002
vt 0.90156875 1
vt 0.03625624999999999 1
vt 0 0.8423500000000002
vt 0.8653125 0.8382375
vt 0.8653125 1
vt 0 1
vt 0 0.8382375
vt 0.90156875 0.8423500000000002
vt 0.937825 1
vt 0 1
vt 0.03625624999999999 0.8423500000000002
vt 0.036256250000000045 1
vt 0 0.8423562499999999
vt 1.0103375 0.8423562499999999
vt 0.97408125 1
vt 0 1
vt 0 0.8382375
vt 1.0103375 0.8382375
vt 1.0103375 1
vt 0 1
vt 0.036256250000000045 0.8423562499999999
vt 0.97408125 0.8423562499999999
vt 1.0103375 1
vt 0.937825 0.8423500000000002
vt 0.90156875 1
vt 0.03625624999999999 1
vt 0 0.8423500000000002
vt 0.8653125 0.8382375
vt 0.8653125 1
vt 0 1
vt 0 0.8382375
vt 0.90156875 0.8423500000000002
vt 0.937825 1
vt 0 1
vt 0.03625624999999999 0.8423500000000002
vt 0.036256250000000045 1
vt 0 0.8423562499999999
vt 1.0103375 0.8423562499999999
vt 0.97408125 1
vt 0 1
vt 0 0.8382375
vt 1.0103375 0.8382375
vt 1.0103375 1
vt 0 1
vt 0.036256250000000045 0.8423562499999999
vt 0.97408125 0.8423562499999999
vt 1.0103375 1
vt 0.937825 0.8423500000000002
vt 0.90156875 1
vt 0.03625624999999999 1
vt 0 0.8423500000000002
vt 0.8653125 0.8382375
vt 0.8653125 1
vt 0 1
vt 0 0.8382375
vt 0.90156875 0.8423500000000002
vt 0.937825 1
vt 0 1
vt 0.03625624999999999 0.8423500000000002
vt 0.036256250000000045 1
vt 0 0.8423562499999999
vt 1.0103375 0.8423562499999999
vt 0.97408125 1
vt 0 1
vt 0 0.8382375
vt 1.0103375 0.8382375
vt 1.0103375 1
vt 0 1
vt 0.036256250000000045 0.8423562499999999
vt 0.97408125 0.8423562499999999
vt 1.0103375 1
vt 0.937825 0.8423500000000002
vt 0.90156875 1
vt 0.03625624999999999 1
vt 0 0.8423500000000002
vt 0.8653125 0.8382375
vt 0.8653125 1
vt 0 1
vt 0 0.8382375
vt 0.90156875 0.8423500000000002
vt 0.937825 1
vt 0 1
vt 0.03625624999999999 0.8423500000000002
vt 0.036256250000000045 1
vt 0 0.8423562499999999
vt 1.0103375 0.8423562499999999
vt 0.97408125 1
vt 0 1
vt 0 0.8382375
vt 1.0103375 0.8382375
vt 1.0103375 1
vt 0 1
vt 0.036256250000000045 0.8423562499999999
vt 0.97408125 0.8423562499999999
vt 1.0103375 1
vt 0.937825 0.8423500000000002
vt 0.90156875 1
vt 0.03625624999999999 1
vt 0 0.8423500000000002
vt 0.8653125 0.8382375
vt 0.8653125 1
vt 0 1
vt 0 0.8382375
vt 0.90156875 0.8423500000000002
vt 0.937825 1
vt 0 1
vt 0.03625624999999999 0.8423500000000002
vt 0.036256250000000045 1
vt 0 0.8423562499999999
vt 1.0103375 0.8423562499999999
vt 0.97408125 1
vt 0 1
vt 0 0.8382375
vt 1.0103375 0.8382375
vt 1.0103375 1
vt 0 1
vt 0.036256250000000045 0.8423562499999999
vt 0.97408125 0.8423562499999999
vt 1.0103375 1
vt 0.937825 0.8423500000000002
vt 0.90156875 1
vt 0.03625624999999999 1
vt 0 0.8423500000000002
vt 0.8653125 0.8382375
vt 0.8653125 1
vt 0 1
vt 0 0.8382375
vt 0.90156875 0.8423500000000002
vt 0.937825 1
vt 0 1
vt 0.03625624999999999 0.8423500000000002
vt 0.036256250000000045 1
vt 0 0.8423562499999999
vt 1.0103375 0.8423562499999999
vt 0.97408125 1
vt 0 1
vt 0 0.8382375
vt 1.0103375 0.8382375
vt 1.0103375 1
vt 0 1
vt 0.036256250000000045 0.8423562499999999
vt 0.97408125 0.8423562499999999
vt 1.0103375 1
vt 0.937825 0.8423500000000002
vt 0.90156875 1
vt 0.03625624999999999 1
vt 0 0.8423500000000002
vt 0.8653125 0.8382375
vt 0.8653125 1
vt 0 1
vt 0 0.8382375
vt 0.90156875 0.8423500000000002
vt 0.937825 1
vt 0 1
vt 0.03625624999999999 0.8423500000000002
vt 0.036256250000000045 1
vt 0 0.8423562499999999
vt 1.0103375 0.8423562499999999
vt 0.97408125 1
vt 0 1
vt 0 0.8382375
vt 1.0103375 0.8382375
vt 1.0103375 1
vt 0 1
vt 0.036256250000000045 0.8423562499999999
vt 0.97408125 0.8423562499999999
vt 1.0103375 1
vt 0.937825 0.8423500000000002
vt 0.90156875 1
vt 0.03625624999999999 1
vt 0 0.8423500000000002
vt 0.8653125 0.8382375
vt 0.8653125 1
vt 0 1
vt 0 0.8382375
vt 0.90156875 0.8423500000000002
vt 0.937825 1
vt 0 1
vt 0.03625624999999999 0.8423500000000002
vt 0.036256250000000045 1
vt 0 0.8423562499999999
vt 1.0103375 0.8423562499999999
vt 0.97408125 1
vt 0 1
vt 0 0.8382375
vt 1.0103375 0.8382375
vt 1.0103375 1
vt 0 1
vt 0.036256250000000045 0.8423562499999999
vt 0.97408125 0.8423562499999999
vt 1.0103375 1
vt 0.937825 0.8423500000000002
vt 0.90156875 1
vt 0.03625624999999999 1
vt 0 0.8423500000000002
vt 0.8653125 0.8382375
vt 0.8653125 1
vt 0 1
vt 0 0.8382375
vt 0.90156875 0.8423500000000002
vt 0.937825 1
vt 0 1
vt 0.03625624999999999 0.8423500000000002
vt 0.036256250000000045 1
vt 0 0.8423562499999999
vt 1.0103375 0.8423562499999999
vt 0.97408125 1
vt 0 1
vt 0 0.8382375
vt 1.0103375 0.8382375
vt 1.0103375 1
vt 0 1
vt 0.036256250000000045 0.8423562499999999
vt 0.97408125 0.8423562499999999
vt 1.0103375 1
vt 0.937825 0.8423500000000002
vt 0.90156875 1
vt 0.03625624999999999 1
vt 0 0.8423500000000002
vt 0.8653125 0.8382375
vt 0.8653125 1
vt 0 1
vt 0 0.8382375
vt 0.90156875 0.8423500000000002
vt 0.937825 1
vt 0 1
vt 0.03625624999999999 0.8423500000000002
vn 0.1125087900926026 0.9743547036924464 0.1948709407384896
vn 0.5000000000000001 3.076740298213703e-15 0.8660254037844388
vn 0.11250879009260252 -0.9743547036924464 0.19487094073848946
vn -0.11250879009260237 -0.9743547036924464 -0.19487094073848923
vn -0.5000000000000001 0 -0.8660254037844388
vn -0.11250879009260246 0.9743547036924464 -0.19487094073848935
vn 0.1948709407384895 0.9743547036924464 0.11250879009260259
vn 0.8660254037844387 4.853097137613953e-15 0.5000000000000001
vn 0.19487094073848923 -0.9743547036924464 0.11250879009260241
vn -0.1948709407384894 -0.9743547036924464 -0.1125087900926025
vn -0.8660254037844386 0 -0.5000000000000001
vn -0.1948709407384895 0.9743547036924464 -0.11250879009260258
vn 0.22501758018520523 0.9743547036924464 0
vn 1 3.552713678800501e-15 0
vn 0.22501758018520499 -0.9743547036924464 0
vn -0.22501758018520474 -0.9743547036924464 0
vn -1 0 0
vn -0.22501758018520485 0.9743547036924464 0
vn 0.1948709407384896 0.9743547036924464 -0.11250879009260263
vn 0.8660254037844386 3.076740298213702e-15 -0.5000000000000001
vn 0.19487094073848943 -0.9743547036924464 -0.11250879009260253
vn -0.1948709407384892 -0.9743547036924464 0.11250879009260237
vn -0.8660254037844385 0 0.5000000000000001
vn -0.19487094073848932 0.9743547036924464 0.11250879009260249
vn 0.11250879009260258 0.9743547036924464 -0.19487094073848948
vn 0.5000000000000002 4.853097137613953e-15 -0.8660254037844387
vn 0.11250879009260241 -0.9743547036924464 -0.19487094073848918
vn -0.1125087900926025 -0.9743547036924464 0.19487094073848937
vn -0.5000000000000001 0 0.8660254037844385
vn -0.11250879009260256 0.9743547036924464 0.19487094073848946
vn 9.89053904288347e-17 0.9743547036924464 -0.2250175801852052
vn 4.395451695259927e-16 3.5527136788005025e-15 -1
vn 5.3276560423461406e-17 -0.9743547036924464 -0.22501758018520499
vn -1.154826676197339e-16 -0.9743547036924464 0.22501758018520465
vn -5.132162008172151e-16 0 1
vn -5.3276560423461406e-17 0.9743547036924464 0.22501758018520482
vn -0.11250879009260241 0.9743547036924465 -0.19487094073848943
vn -0.49999999999999967 3.076740298213703e-15 -0.8660254037844388
vn -0.11250879009260227 -0.9743547036924464 -0.19487094073848926
vn 0.11250879009260246 -0.9743547036924465 0.19487094073848957
vn 0.4999999999999997 0 0.8660254037844389
vn 0.1125087900926025 0.9743547036924464 0.19487094073848968
vn -0.19487094073848948 0.9743547036924463 -0.11250879009260252
vn -0.8660254037844387 4.8530971376139526e-15 -0.4999999999999999
vn -0.19487094073848923 -0.9743547036924464 -0.11250879009260237
vn 0.19487094073848946 -0.9743547036924465 0.11250879009260246
vn 0.8660254037844387 0 0.4999999999999999
vn 0.19487094073848957 0.9743547036924464 0.11250879009260255
vn -0.2250175801852052 0.9743547036924464 -4.945269521441738e-17
vn -1 3.552713678800501e-15 -2.197725847629965e-16
vn -0.22501758018520499 -0.9743547036924464 0
vn 0.22501758018520468 -0.9743547036924464 5.7741333809867e-17
vn 1 0 2.5660810040860775e-16
vn 0.22501758018520485 0.9743547036924464 0
vn -0.1948709407384894 0.9743547036924464 0.11250879009260242
vn -0.8660254037844389 3.0767402982137033e-15 0.4999999999999998
vn -0.1948709407384893 -0.9743547036924464 0.11250879009260228
vn 0.19487094073848954 -0.9743547036924464 -0.11250879009260248
vn 0.8660254037844388 0 -0.4999999999999997
vn 0.19487094073848968 0.9743547036924464 -0.11250879009260253
vn -0.11250879009260256 0.9743547036924463 0.19487094073848946
vn -0.5000000000000001 4.8530971376139526e-15 0.8660254037844386
vn -0.11250879009260241 -0.9743547036924464 0.1948709407384892
vn 0.1125087900926025 -0.9743547036924463 -0.19487094073848937
vn 0.5000000000000001 0 -0.8660254037844386
vn 0.11250879009260258 0.9743547036924464 -0.19487094073848948
vn 0 0.9743547036924464 0.2250175801852052
vn 0 3.552713678800501e-15 1
vn 0 -0.9743547036924464 0.225017580185205
vn 0 -0.9743547036924464 -0.2250175801852047
vn 0 0 -1
vn 0 0.9743547036924464 -0.22501758018520485
usemtl none
f 1/1/1 2/2/1 8/3/1 7/4/1
f 2/5/2 3/6/2 9/7/2 8/8/2
f 3/9/3 4/10/3 10/11/3 9/12/3
f 4/13/4 5/14/4 11/15/4 10/16/4
f 5/17/5 6/18/5 12/19/5 11/20/5
f 6/21/6 1/22/6 7/23/6 12/24/6
f 7/25/7 8/26/7 14/27/7 13/28/7
f 8/29/8 9/30/8 15/31/8 14/32/8
f 9/33/9 10/34/9 16/35/9 15/36/9
f 10/37/10 11/38/10 17/39/10 16/40/10
f 11/41/11 12/42/11 18/43/11 17/44/11
f 12/45/12 7/46/12 13/47/12 18/48/12
f 13/49/13 14/50/13 20/51/13 19/52/13
f 14/53/14 15/54/14 21/55/14 20/56/14
f 15/57/15 16/58/15 22/59/15 21/60/15
f 16/61/16 17/62/16 23/63/16 22/64/16
f 17/65/17 18/66/17 24/67/17 23/68/17
f 18/69/18 13/70/18 19/71/18 24/72/18
f 19/73/19 20/74/19 26/75/19 25/76/19
f 20/77/20 21/78/20 27/79/20 26/80/20
f 21/81/21 22/82/21 28/83/21 27/84/21
f 22/85/22 23/86/22 29/87/22 28/88/22
f 23/89/23 24/90/23 30/91/23 29/92/23
f 24/93/24 19/94/24 25/95/24 30/96/24
f 25/97/25 26/98/25 32/99/25 31/100/25
f 26/101/26 27/102/26 33/103/26 32/104/26
f 27/105/27 28/106/27 34/107/27 33/108/27
f 28/109/28 29/110/28 35/111/28 34/112/28
f 29/113/29 30/114/29 36/115/29 35/116/29
f 30/117/30 25/118/30 31/119/30 36/120/30
f 31/121/31 32/122/31 38/123/31 37/124/31
f 32/125/32 33/126/32 39/127/32 38/128/32
f 33/129/33 34/130/33 40/131/33 39/132/33
f 34/133/34 35/134/34 41/135/34 40/136/34
f 35/137/35 36/138/35 42/139/35 41/140/35
f 36/141/36 31/142/36 37/143/36 42/144/36
f 37/145/37 38/146/37 44/147/37 43/148/37
f 38/149/38 39/150/38 45/151/38 44/152/38
f 39/153/39 40/154/39 46/155/39 45/156/39
f 40/157/40 41/158/40 47/159/40 46/160/40
f 41/161/41 42/162/41 48/163/41 47/164/41
f 42/165/42 37/166/42 43/167/42 48/168/42
f 43/169/43 44/170/43 50/171/43 49/172/43
f 44/173/44 45/174/44 51/175/44 50/176/44
f 45/177/45 46/178/45 52/179/45 51/180/45
f 46/181/46 47/182/46 53/183/46 52/184/46
f 47/185/47 48/186/47 54/187/47 53/188/47
f 48/189/48 43/190/48 49/191/48 54/192/48
f 49/193/49 50/194/49 56/195/49 55/196/49
f 50/197/50 51/198/50 57/199/50 56/200/50
f 51/201/51 52/202/51 58/203/51 57/204/51
f 52/205/52 53/206/52 59/207/52 58/208/52
f 53/209/53 54/210/53 60/211/53 59/212/53
f 54/213/54 49/214/54 55/215/54 60/216/54
f 55/217/55 56/218/55 62/219/55 61/220/55
f 56/221/56 57/222/56 63/223/56 62/224/56
f 57/225/57 58/226/57 64/227/57 63/228/57
f 58/229/58 59/230/58 65/231/58 64/232/58
f 59/233/59 60/234/59 66/235/59 65/236/59
f 60/237/60 55/238/60 61/239/60 66/240/60
f 61/241/61 62/242/61 68/243/61 67/244/61
f 62/245/62 63/246/62 69/247/62 68/248/62
f 63/249/63 64/250/63 70/251/63 69/252/63
f 64/253/64 65/254/64 71/255/64 70/256/64
f 65/257/65 66/258/65 72/259/65 71/260/65
f 66/261/66 61/262/66 67/263/66 72/264/66
f 67/265/67 68/266/67 2/267/67 1/268/67
f 68/269/68 69/270/68 3/271/68 2/272/68
f 69/273/69 70/274/69 4/275/69 3/276/69
f 70/277/70 71/278/70 5/279/70 4/280/70
f 71/281/71 72/282/71 6/283/71 5/284/71
f 72/285/72 67/286/72 1/287/72 6/288/72